<?xml version="1.0" standalone="no"?>
<!DOCTYPE svg PUBLIC "-//W3C//DTD SVG 20010904//EN"
 "http://www.w3.org/TR/2001/REC-SVG-20010904/DTD/svg10.dtd">
<svg version="1.0" xmlns="http://www.w3.org/2000/svg"
 width="700.000000pt" height="700.000000pt" viewBox="0 0 700.000000 700.000000"
 preserveAspectRatio="xMidYMid meet">
<metadata>
Created by potrace 1.14, written by Peter Selinger 2001-2017
</metadata>
<g transform="translate(0.000000,700.000000) scale(0.100000,-0.100000)"
fill="#000000" stroke="none">
<path d="M5308 5015 c-2 -1 -37 -5 -78 -8 -73 -6 -102 -10 -165 -24 -16 -4
-34 -8 -40 -9 -144 -28 -329 -128 -430 -230 -101 -103 -154 -197 -190 -338
-20 -78 -23 -111 -21 -236 2 -80 6 -154 9 -165 60 -214 142 -330 306 -429 156
-94 383 -165 708 -221 413 -70 602 -234 603 -520 0 -321 -231 -500 -655 -510
-285 -6 -522 50 -823 195 l-142 69 2 -202 3 -201 48 -18 c85 -32 318 -96 424
-118 244 -49 574 -60 759 -26 10 2 39 7 64 11 369 60 639 285 706 586 3 13 7
31 9 39 17 76 22 215 11 318 -28 274 -184 489 -448 616 -88 42 -227 89 -335
112 -111 23 -164 35 -193 40 -413 79 -563 145 -625 278 -64 137 -50 331 32
449 165 238 652 293 1119 126 146 -51 164 -59 202 -78 21 -10 47 -22 60 -25
l22 -7 0 190 0 190 -67 20 c-123 36 -180 52 -202 56 -13 2 -30 6 -39 9 -30 9
-246 44 -312 51 -64 6 -317 14 -322 10z"/>
<path d="M1025 4960 c-1 -3 -3 -656 -3 -1452 l0 -1448 99 0 99 0 1 1273 c0
1104 2 1267 14 1237 8 -19 98 -260 201 -535 102 -275 259 -696 349 -935 90
-239 166 -445 170 -457 7 -25 0 -24 180 -25 l99 -1 108 289 c60 159 121 323
137 364 16 41 59 156 96 255 94 255 106 286 120 320 7 17 61 161 119 320 59
160 112 299 117 310 5 11 18 45 28 75 19 55 20 51 20 -1217 l1 -1273 100 0
100 0 0 1453 0 1452 -131 -1 c-71 -1 -134 -5 -138 -10 -4 -5 -54 -133 -111
-284 -56 -151 -118 -313 -136 -360 -30 -80 -304 -807 -364 -970 -16 -41 -39
-104 -53 -140 -13 -36 -45 -120 -70 -187 -25 -66 -53 -138 -62 -160 l-16 -38
-271 720 c-148 396 -328 878 -400 1070 -72 193 -133 352 -134 354 -5 6 -265 7
-269 1z"/>
</g>
</svg>
